<?xml version="1.0" encoding="UTF-8" standalone="no"?>
<!DOCTYPE svg PUBLIC "-//W3C//DTD SVG 1.1//EN" "http://www.w3.org/Graphics/SVG/1.1/DTD/svg11.dtd">
<svg version="1.1" xmlns="http://www.w3.org/2000/svg" xmlns:xlink="http://www.w3.org/1999/xlink" preserveAspectRatio="xMidYMid meet" viewBox="0 0 432 768" width="432" height="768"><defs><path d="M51 45.5C51 47.71 49.21 49.5 47 49.5C44.79 49.5 43 47.71 43 45.5C43 43.29 44.79 41.5 47 41.5C49.21 41.5 51 43.29 51 45.5Z" id="aHcjFWkc1"></path><path d="M49.5 156C49.5 158.21 47.71 160 45.5 160C43.29 160 41.5 158.21 41.5 156C41.5 153.79 43.29 152 45.5 152C47.71 152 49.5 153.79 49.5 156Z" id="a4GB7eF9HK"></path><path d="M191.5 41.5C191.5 43.71 189.71 45.5 187.5 45.5C185.29 45.5 183.5 43.71 183.5 41.5C183.5 39.29 185.29 37.5 187.5 37.5C189.71 37.5 191.5 39.29 191.5 41.5Z" id="b5IMy4Nic"></path><path d="M70.5 89.5C70.5 91.71 68.71 93.5 66.5 93.5C64.29 93.5 62.5 91.71 62.5 89.5C62.5 87.29 64.29 85.5 66.5 85.5C68.71 85.5 70.5 87.29 70.5 89.5Z" id="blSFN4pAT"></path><path d="M107 208C107 210.21 105.21 212 103 212C100.79 212 99 210.21 99 208C99 205.79 100.79 204 103 204C105.21 204 107 205.79 107 208Z" id="bfFKxz7Mn"></path><path d="M119.5 20.5C119.5 22.71 117.71 24.5 115.5 24.5C113.29 24.5 111.5 22.71 111.5 20.5C111.5 18.29 113.29 16.5 115.5 16.5C117.71 16.5 119.5 18.29 119.5 20.5Z" id="b3xBB5q3QE"></path><path d="M120.5 78C120.5 80.21 118.71 82 116.5 82C114.29 82 112.5 80.21 112.5 78C112.5 75.79 114.29 74 116.5 74C118.71 74 120.5 75.79 120.5 78Z" id="e90eP7UrE1"></path><path d="M183.5 113.5C183.5 115.71 181.71 117.5 179.5 117.5C177.29 117.5 175.5 115.71 175.5 113.5C175.5 111.29 177.29 109.5 179.5 109.5C181.71 109.5 183.5 111.29 183.5 113.5Z" id="b3BmbVAMef"></path><path d="M296 75.5C296 77.71 294.21 79.5 292 79.5C289.79 79.5 288 77.71 288 75.5C288 73.29 289.79 71.5 292 71.5C294.21 71.5 296 73.29 296 75.5Z" id="d1nM7JDCxD"></path><path d="M299 120.75C299 122.96 297.21 124.75 295 124.75C292.79 124.75 291 122.96 291 120.75C291 118.54 292.79 116.75 295 116.75C297.21 116.75 299 118.54 299 120.75Z" id="e9bkkSJfEW"></path><path d="M135.5 280C135.5 282.21 133.71 284 131.5 284C129.29 284 127.5 282.21 127.5 280C127.5 277.79 129.29 276 131.5 276C133.71 276 135.5 277.79 135.5 280Z" id="f1zl6jH84A"></path><path d="M37.5 272C37.5 274.21 35.71 276 33.5 276C31.29 276 29.5 274.21 29.5 272C29.5 269.79 31.29 268 33.5 268C35.71 268 37.5 269.79 37.5 272Z" id="b4R0sQOgvC"></path><path d="M179.5 173C179.5 175.21 177.71 177 175.5 177C173.29 177 171.5 175.21 171.5 173C171.5 170.79 173.29 169 175.5 169C177.71 169 179.5 170.79 179.5 173Z" id="e7di3aG3nK"></path><path d="M162.5 229.5C162.5 231.71 160.71 233.5 158.5 233.5C156.29 233.5 154.5 231.71 154.5 229.5C154.5 227.29 156.29 225.5 158.5 225.5C160.71 225.5 162.5 227.29 162.5 229.5Z" id="c4bs6y54Hp"></path><path d="M239.5 139C239.5 141.21 237.71 143 235.5 143C233.29 143 231.5 141.21 231.5 139C231.5 136.79 233.29 135 235.5 135C237.71 135 239.5 136.79 239.5 139Z" id="b58aeaSa0"></path><path d="M237 185.5C237 187.71 235.21 189.5 233 189.5C230.79 189.5 229 187.71 229 185.5C229 183.29 230.79 181.5 233 181.5C235.21 181.5 237 183.29 237 185.5Z" id="f2i7n2SH8v"></path><path d="M400.5 117.5C400.5 119.71 398.71 121.5 396.5 121.5C394.29 121.5 392.5 119.71 392.5 117.5C392.5 115.29 394.29 113.5 396.5 113.5C398.71 113.5 400.5 115.29 400.5 117.5Z" id="c21XiYb97R"></path><path d="M367 82C367 84.21 365.21 86 363 86C360.79 86 359 84.21 359 82C359 79.79 360.79 78 363 78C365.21 78 367 79.79 367 82Z" id="d1bQlmAk5R"></path><path d="M245 62C245 64.21 243.21 66 241 66C238.79 66 237 64.21 237 62C237 59.79 238.79 58 241 58C243.21 58 245 59.79 245 62Z" id="a3KyOzieZ"></path><path d="M277 231.5C277 233.71 275.21 235.5 273 235.5C270.79 235.5 269 233.71 269 231.5C269 229.29 270.79 227.5 273 227.5C275.21 227.5 277 229.29 277 231.5Z" id="daz1u4aqN"></path><path d="M265.5 286.5C265.5 288.71 263.71 290.5 261.5 290.5C259.29 290.5 257.5 288.71 257.5 286.5C257.5 284.29 259.29 282.5 261.5 282.5C263.71 282.5 265.5 284.29 265.5 286.5Z" id="d1QP5HZppe"></path><path d="M333 33.5C333 35.71 331.21 37.5 329 37.5C326.79 37.5 325 35.71 325 33.5C325 31.29 326.79 29.5 329 29.5C331.21 29.5 333 31.29 333 33.5Z" id="lq6cjKVMx"></path><path d="M376.29 348.08C376.29 350.29 374.5 352.08 372.29 352.08C370.08 352.08 368.29 350.29 368.29 348.08C368.29 345.87 370.08 344.08 372.29 344.08C374.5 344.08 376.29 345.87 376.29 348.08Z" id="e5kpXd75Zu"></path><path d="M406 45.5C406 47.71 404.21 49.5 402 49.5C399.79 49.5 398 47.71 398 45.5C398 43.29 399.79 41.5 402 41.5C404.21 41.5 406 43.29 406 45.5Z" id="f1f5sZk7Zh"></path><path d="M99 320.5C99 322.71 97.21 324.5 95 324.5C92.79 324.5 91 322.71 91 320.5C91 318.29 92.79 316.5 95 316.5C97.21 316.5 99 318.29 99 320.5Z" id="b2Ikj9xt1E"></path><path d="M213.5 320.5C213.5 322.71 211.71 324.5 209.5 324.5C207.29 324.5 205.5 322.71 205.5 320.5C205.5 318.29 207.29 316.5 209.5 316.5C211.71 316.5 213.5 318.29 213.5 320.5Z" id="cYFRU5Bp"></path><path d="M301.71 463.71C301.71 465.92 299.92 467.71 297.71 467.71C295.5 467.71 293.71 465.92 293.71 463.71C293.71 461.5 295.5 459.71 297.71 459.71C299.92 459.71 301.71 461.5 301.71 463.71Z" id="bFOp09plq"></path><path d="M214.75 240C214.75 242.21 212.96 244 210.75 244C208.54 244 206.75 242.21 206.75 240C206.75 237.79 208.54 236 210.75 236C212.96 236 214.75 237.79 214.75 240Z" id="bC3GFa6ZJ"></path><path d="M43.26 375.82C43.26 378.02 41.47 379.82 39.26 379.82C37.06 379.82 35.26 378.02 35.26 375.82C35.26 373.61 37.06 371.82 39.26 371.82C41.47 371.82 43.26 373.61 43.26 375.82Z" id="d2tmwIlCmA"></path><path d="M92.12 399.71C92.12 401.92 90.33 403.71 88.12 403.71C85.91 403.71 84.12 401.92 84.12 399.71C84.12 397.5 85.91 395.71 88.12 395.71C90.33 395.71 92.12 397.5 92.12 399.71Z" id="e2N7UAi2Yn"></path><path d="M152.03 403.08C152.03 405.29 150.23 407.08 148.03 407.08C145.82 407.08 144.03 405.29 144.03 403.08C144.03 400.87 145.82 399.08 148.03 399.08C150.23 399.08 152.03 400.87 152.03 403.08Z" id="bi799lZHx"></path><path d="M226.67 471.71C226.67 473.92 224.88 475.71 222.67 475.71C220.46 475.71 218.67 473.92 218.67 471.71C218.67 469.5 220.46 467.71 222.67 467.71C224.88 467.71 226.67 469.5 226.67 471.71Z" id="bgaV56hUQ"></path><path d="M241 386.66C241 388.87 239.21 390.66 237 390.66C234.79 390.66 233 388.87 233 386.66C233 384.45 234.79 382.66 237 382.66C239.21 382.66 241 384.45 241 386.66Z" id="b1qwGQuIZB"></path><path d="M66.5 492.66C66.5 494.87 64.71 496.66 62.5 496.66C60.29 496.66 58.5 494.87 58.5 492.66C58.5 490.45 60.29 488.66 62.5 488.66C64.71 488.66 66.5 490.45 66.5 492.66Z" id="d2paqS4LN"></path><path d="M384.29 520.76C384.29 522.97 382.5 524.76 380.29 524.76C378.08 524.76 376.29 522.97 376.29 520.76C376.29 518.56 378.08 516.76 380.29 516.76C382.5 516.76 384.29 518.56 384.29 520.76Z" id="kSnDugSBU"></path><path d="M241 567.18C241 569.39 239.21 571.18 237 571.18C234.79 571.18 233 569.39 233 567.18C233 564.98 234.79 563.18 237 563.18C239.21 563.18 241 564.98 241 567.18Z" id="cbM48D5vy"></path><path d="M115 571.18C115 573.39 113.21 575.18 111 575.18C108.79 575.18 107 573.39 107 571.18C107 568.98 108.79 567.18 111 567.18C113.21 567.18 115 568.98 115 571.18Z" id="a1FabVBPr9"></path><path d="M35.26 556.66C35.26 558.87 33.47 560.66 31.26 560.66C29.06 560.66 27.26 558.87 27.26 556.66C27.26 554.45 29.06 552.66 31.26 552.66C33.47 552.66 35.26 554.45 35.26 556.66Z" id="b6iYDQMIki"></path><path d="M289.71 519.5C289.71 521.71 287.92 523.5 285.71 523.5C283.5 523.5 281.71 521.71 281.71 519.5C281.71 517.29 283.5 515.5 285.71 515.5C287.92 515.5 289.71 517.29 289.71 519.5Z" id="d1sSkooMt"></path><path d="M152.03 501.82C152.03 504.02 150.23 505.82 148.03 505.82C145.82 505.82 144.03 504.02 144.03 501.82C144.03 499.61 145.82 497.82 148.03 497.82C150.23 497.82 152.03 499.61 152.03 501.82Z" id="h2EQthwvk2"></path><path d="M187.42 562.03C187.42 564.23 185.63 566.03 183.42 566.03C181.21 566.03 179.42 564.23 179.42 562.03C179.42 559.82 181.21 558.03 183.42 558.03C185.63 558.03 187.42 559.82 187.42 562.03Z" id="b3E1sm7mcX"></path><path d="M216 520.76C216 522.97 214.21 524.76 212 524.76C209.79 524.76 208 522.97 208 520.76C208 518.56 209.79 516.76 212 516.76C214.21 516.76 216 518.56 216 520.76Z" id="g3jyLIaIRJ"></path><path d="M350 586.03C350 588.23 348.21 590.03 346 590.03C343.79 590.03 342 588.23 342 586.03C342 583.82 343.79 582.03 346 582.03C348.21 582.03 350 583.82 350 586.03Z" id="c34FzB299"></path><path d="M270.59 695.34C270.59 697.55 268.8 699.34 266.59 699.34C264.38 699.34 262.59 697.55 262.59 695.34C262.59 693.13 264.38 691.34 266.59 691.34C268.8 691.34 270.59 693.13 270.59 695.34Z" id="e3LJ1pUPA"></path><path d="M191.42 601.82C191.42 604.02 189.63 605.82 187.42 605.82C185.21 605.82 183.42 604.02 183.42 601.82C183.42 599.61 185.21 597.82 187.42 597.82C189.63 597.82 191.42 599.61 191.42 601.82Z" id="c5c0OwLO4S"></path><path d="M148.03 662.03C148.03 664.23 146.23 666.03 144.03 666.03C141.82 666.03 140.03 664.23 140.03 662.03C140.03 659.82 141.82 658.03 144.03 658.03C146.23 658.03 148.03 659.82 148.03 662.03Z" id="cMOQlLS2J"></path><path d="M152.03 353.29C152.03 355.5 150.23 357.29 148.03 357.29C145.82 357.29 144.03 355.5 144.03 353.29C144.03 351.08 145.82 349.29 148.03 349.29C150.23 349.29 152.03 351.08 152.03 353.29Z" id="a1BHvofUJe"></path><path d="M191.42 711.92C191.42 714.13 189.63 715.92 187.42 715.92C185.21 715.92 183.42 714.13 183.42 711.92C183.42 709.71 185.21 707.92 187.42 707.92C189.63 707.92 191.42 709.71 191.42 711.92Z" id="b4hTyul4aD"></path><path d="M297.71 647.61C297.71 649.81 295.92 651.61 293.71 651.61C291.5 651.61 289.71 649.81 289.71 647.61C289.71 645.4 291.5 643.61 293.71 643.61C295.92 643.61 297.71 645.4 297.71 647.61Z" id="cciRdgOyvz"></path><path d="M370.58 410.08C370.58 412.29 368.79 414.08 366.58 414.08C364.37 414.08 362.58 412.29 362.58 410.08C362.58 407.87 364.37 406.08 366.58 406.08C368.79 406.08 370.58 407.87 370.58 410.08Z" id="bnN1sRGGS"></path><path d="M107 624.34C107 626.55 105.21 628.34 103 628.34C100.79 628.34 99 626.55 99 624.34C99 622.13 100.79 620.34 103 620.34C105.21 620.34 107 622.13 107 624.34Z" id="bAENfHLE"></path><path d="M297.71 728.92C297.71 731.13 295.92 732.92 293.71 732.92C291.5 732.92 289.71 731.13 289.71 728.92C289.71 726.71 291.5 724.92 293.71 724.92C295.92 724.92 297.71 726.71 297.71 728.92Z" id="bWvSkCkRO"></path><path d="M358 693.18C358 695.39 356.21 697.18 354 697.18C351.79 697.18 350 695.39 350 693.18C350 690.98 351.79 689.18 354 689.18C356.21 689.18 358 690.98 358 693.18Z" id="a1xVTzAXu5"></path><path d="M110 571.18L183.42 562.03L212 520.76L148.03 501.82L110 571.18Z" id="aPvyYK85h"></path><path d="M88.12 399.71L131.5 280L95 320.5L33.5 272L88.12 399.71Z" id="i6DeaySy6"></path><path d="M88.12 400.75L95 320.5L39.26 375.82L88.12 400.75Z" id="ahMv9cMiD"></path><path d="M103 208L116.5 78L47 45.5L66.5 89.5L45.5 156L95 320.5" id="bE7gtf23"></path><path d="M131.5 280L45.5 156L103 208L66.5 89.5" id="bJiEQ4U0"></path><path d="M158.5 229.5L131.5 280L103 208L158.5 229.5Z" id="byG5Za0nz"></path><path d="M187.5 41.5L115.5 20.5L116.5 78L66.5 89.5L95 320.5L103 208" id="cOBk5ME2J"></path><path d="M233 185.5L103 208L179.5 113.5L175.5 173L45.5 156L116.5 78L187.5 41.5" id="b3sXHEQhBV"></path><path d="" id="h53d9cTh8"></path><path d="M261.5 286.5L209.5 320.5L131.5 280L148.03 353.29L158.5 229.5L175.5 173L116.5 78L179.5 113.5L187.5 41.5" id="c3LLhapiw"></path><path d="M62.5 492.66L237 386.66L148.03 403.08L88.12 399.71L148.03 353.29" id="b1ndCyFE99"></path><path d="M144.03 662.03L187.5 601.82L103 624.34L31.26 556.66L111 571.18L62.5 492.66" id="b9fA001je"></path><path d="M237 567.18L187.5 601.82L183.42 562.03L103 624.34L111 571.18" id="b36DEXG8KG"></path><path d="M354 693.18L293.71 647.61L144.03 662.03L266.59 695.34L237 567.18L183.42 562.03" id="a2cVgcLQZ"></path><path d="M285.71 519.5L354 693.18L346 586.03L293.71 647.61L266.59 695.34" id="fJhs4FTbf"></path><path d="M297.71 463.71L212 520.76L189 603.75L293.71 647.61L285.71 519.5L297.71 463.71Z" id="b2DUVKuHIR"></path><path d="M111 571.18L88.12 399.71L148.03 501.82L148.03 403.71L222.67 471.71L212 520.76L285.71 519.5L237 567.18" id="g1VYloZMEK"></path><path d="M366.58 410.08L380.29 520.76L285.71 520.76L346 586.03L297.71 463.71L222.67 471.71L183.42 562.03L148.03 501.82" id="b2ImIsVLBb"></path><path d="M237 385.25L222.67 471.71L366.58 410.08L297.71 463.71L380.29 520.76" id="gDpqiLWs5"></path><path d="M372.29 348.08L297.71 463.71L237 386.66L372.29 348.08Z" id="dWjYomxHt"></path><path d="M285.71 519.5C299.19 501.26 326.14 464.79 366.58 410.08L237 386.66" id="aQeDTE9WT"></path><path d="M131.5 280L103 208L33.5 272" id="a4fxJJVuQ"></path><path d="M186.91 601.82L237 567.18L346 586.03L144.03 662.03" id="fqGvAUJgK"></path><path d="M273 231.5L261.5 286.5L210.75 240L209.5 320.5L148.03 353.29L237 386.66" id="c1HZAm4Yrs"></path><path d="M209.5 320.5L237 386.66" id="d1YOVO4Lr"></path><path d="M148.03 403.08L62.5 492.66L148.03 353.29L148.03 403.08Z" id="cwkH8L4Q7"></path><path d="M241 62L187.5 41.5" id="hRAFUJTAp"></path><path d="M235.5 139L241 62L179.5 113.5L235.5 139Z" id="e2gbEVGoOh"></path><path d="M233 185.5L235.5 139L175.5 173L233 185.5Z" id="gakbDHYq6"></path><path d="M273 231.5L233 185.5L210.75 240L175.5 173" id="b2dv2NPI7u"></path><path d="" id="e3qRgLaCVG"></path><path d="M295 120.75L292 75.5L329 33.5L241 62L295 120.75Z" id="a3QoCSEZCN"></path><path d="M363 82L402 45.5L329 33.5L363 82Z" id="b2GXblVkav"></path><path d="M273 231.5L235.5 139L295 120.75L363 82L396.5 117.5L292 75.5" id="f33dD7kul"></path><path d="M396.5 117.5L295 120.75L273 231.5L396.5 117.5Z" id="g2fLuAnjy1"></path><path d="M261.5 286.5L131.5 280L210.75 240L158.5 229.5" id="c1zGLMz5XO"></path><path d="M261.5 286.5L233 185.5" id="cJSwWX6x"></path><path d="M273 231.5L148.03 353.58" id="b2zGHVCtAF"></path><path d="M354 695.34L293.71 728.92L266.59 695.34L187.5 711.92L187.5 601.82" id="a3tEn4HzTF"></path><path d="M237 567.18L187.5 711.92" id="cnXRdda2E"></path></defs><g><g><g><use xlink:href="#aHcjFWkc1" opacity="1" fill="#565656" fill-opacity="1"></use></g><g><use xlink:href="#a4GB7eF9HK" opacity="1" fill="#565656" fill-opacity="1"></use></g><g><use xlink:href="#b5IMy4Nic" opacity="1" fill="#565656" fill-opacity="1"></use></g><g><use xlink:href="#blSFN4pAT" opacity="1" fill="#565656" fill-opacity="1"></use></g><g><use xlink:href="#bfFKxz7Mn" opacity="1" fill="#565656" fill-opacity="1"></use></g><g><use xlink:href="#b3xBB5q3QE" opacity="1" fill="#565656" fill-opacity="1"></use></g><g><use xlink:href="#e90eP7UrE1" opacity="1" fill="#565656" fill-opacity="1"></use></g><g><use xlink:href="#b3BmbVAMef" opacity="1" fill="#565656" fill-opacity="1"></use></g><g><use xlink:href="#d1nM7JDCxD" opacity="1" fill="#565656" fill-opacity="1"></use></g><g><use xlink:href="#e9bkkSJfEW" opacity="1" fill="#565656" fill-opacity="1"></use></g><g><use xlink:href="#f1zl6jH84A" opacity="1" fill="#565656" fill-opacity="1"></use></g><g><use xlink:href="#b4R0sQOgvC" opacity="1" fill="#565656" fill-opacity="1"></use></g><g><use xlink:href="#e7di3aG3nK" opacity="1" fill="#565656" fill-opacity="1"></use></g><g><use xlink:href="#c4bs6y54Hp" opacity="1" fill="#565656" fill-opacity="1"></use></g><g><use xlink:href="#b58aeaSa0" opacity="1" fill="#565656" fill-opacity="1"></use></g><g><use xlink:href="#f2i7n2SH8v" opacity="1" fill="#565656" fill-opacity="1"></use></g><g><use xlink:href="#c21XiYb97R" opacity="1" fill="#565656" fill-opacity="1"></use></g><g><use xlink:href="#d1bQlmAk5R" opacity="1" fill="#565656" fill-opacity="1"></use></g><g><use xlink:href="#a3KyOzieZ" opacity="1" fill="#565656" fill-opacity="1"></use></g><g><use xlink:href="#daz1u4aqN" opacity="1" fill="#565656" fill-opacity="1"></use></g><g><use xlink:href="#d1QP5HZppe" opacity="1" fill="#565656" fill-opacity="1"></use></g><g><use xlink:href="#lq6cjKVMx" opacity="1" fill="#565656" fill-opacity="1"></use></g><g><use xlink:href="#e5kpXd75Zu" opacity="1" fill="#565656" fill-opacity="1"></use></g><g><use xlink:href="#f1f5sZk7Zh" opacity="1" fill="#565656" fill-opacity="1"></use></g><g><use xlink:href="#b2Ikj9xt1E" opacity="1" fill="#565656" fill-opacity="1"></use></g><g><use xlink:href="#cYFRU5Bp" opacity="1" fill="#565656" fill-opacity="1"></use></g><g><use xlink:href="#bFOp09plq" opacity="1" fill="#565656" fill-opacity="1"></use></g><g><use xlink:href="#bC3GFa6ZJ" opacity="1" fill="#565656" fill-opacity="1"></use></g><g><use xlink:href="#d2tmwIlCmA" opacity="1" fill="#565656" fill-opacity="1"></use></g><g><use xlink:href="#e2N7UAi2Yn" opacity="1" fill="#565656" fill-opacity="1"></use></g><g><use xlink:href="#bi799lZHx" opacity="1" fill="#565656" fill-opacity="1"></use></g><g><use xlink:href="#bgaV56hUQ" opacity="1" fill="#565656" fill-opacity="1"></use></g><g><use xlink:href="#b1qwGQuIZB" opacity="1" fill="#565656" fill-opacity="1"></use></g><g><use xlink:href="#d2paqS4LN" opacity="1" fill="#565656" fill-opacity="1"></use></g><g><use xlink:href="#kSnDugSBU" opacity="1" fill="#565656" fill-opacity="1"></use></g><g><use xlink:href="#cbM48D5vy" opacity="1" fill="#565656" fill-opacity="1"></use></g><g><use xlink:href="#a1FabVBPr9" opacity="1" fill="#565656" fill-opacity="1"></use></g><g><use xlink:href="#b6iYDQMIki" opacity="1" fill="#565656" fill-opacity="1"></use></g><g><use xlink:href="#d1sSkooMt" opacity="1" fill="#565656" fill-opacity="1"></use></g><g><use xlink:href="#h2EQthwvk2" opacity="1" fill="#565656" fill-opacity="1"></use></g><g><use xlink:href="#b3E1sm7mcX" opacity="1" fill="#565656" fill-opacity="1"></use></g><g><use xlink:href="#g3jyLIaIRJ" opacity="1" fill="#565656" fill-opacity="1"></use></g><g><use xlink:href="#c34FzB299" opacity="1" fill="#565656" fill-opacity="1"></use></g><g><use xlink:href="#e3LJ1pUPA" opacity="1" fill="#565656" fill-opacity="1"></use></g><g><use xlink:href="#c5c0OwLO4S" opacity="1" fill="#565656" fill-opacity="1"></use></g><g><use xlink:href="#cMOQlLS2J" opacity="1" fill="#565656" fill-opacity="1"></use></g><g><use xlink:href="#a1BHvofUJe" opacity="1" fill="#565656" fill-opacity="1"></use></g><g><use xlink:href="#b4hTyul4aD" opacity="1" fill="#565656" fill-opacity="1"></use></g><g><use xlink:href="#cciRdgOyvz" opacity="1" fill="#565656" fill-opacity="1"></use></g><g><use xlink:href="#bnN1sRGGS" opacity="1" fill="#565656" fill-opacity="1"></use></g><g><use xlink:href="#bAENfHLE" opacity="1" fill="#565656" fill-opacity="1"></use></g><g><use xlink:href="#bWvSkCkRO" opacity="1" fill="#565656" fill-opacity="1"></use></g><g><use xlink:href="#a1xVTzAXu5" opacity="1" fill="#565656" fill-opacity="1"></use></g><g><g><use xlink:href="#aPvyYK85h" opacity="1" fill-opacity="0" stroke="#565656" stroke-width="1" stroke-opacity="1"></use></g></g><g><g><use xlink:href="#i6DeaySy6" opacity="1" fill-opacity="0" stroke="#565656" stroke-width="1" stroke-opacity="1"></use></g></g><g><g><use xlink:href="#ahMv9cMiD" opacity="1" fill-opacity="0" stroke="#565656" stroke-width="1" stroke-opacity="1"></use></g></g><g><g><use xlink:href="#bE7gtf23" opacity="1" fill-opacity="0" stroke="#565656" stroke-width="1" stroke-opacity="1"></use></g></g><g><g><use xlink:href="#bJiEQ4U0" opacity="1" fill-opacity="0" stroke="#565656" stroke-width="1" stroke-opacity="1"></use></g></g><g><g><use xlink:href="#byG5Za0nz" opacity="1" fill-opacity="0" stroke="#565656" stroke-width="1" stroke-opacity="1"></use></g></g><g><g><use xlink:href="#cOBk5ME2J" opacity="1" fill-opacity="0" stroke="#565656" stroke-width="1" stroke-opacity="1"></use></g></g><g><g><use xlink:href="#b3sXHEQhBV" opacity="1" fill-opacity="0" stroke="#565656" stroke-width="1" stroke-opacity="1"></use></g></g><g><g><use xlink:href="#h53d9cTh8" opacity="1" fill-opacity="0" stroke="#565656" stroke-width="1" stroke-opacity="1"></use></g></g><g><g><use xlink:href="#c3LLhapiw" opacity="1" fill-opacity="0" stroke="#565656" stroke-width="1" stroke-opacity="1"></use></g></g><g><g><use xlink:href="#b1ndCyFE99" opacity="1" fill-opacity="0" stroke="#565656" stroke-width="1" stroke-opacity="1"></use></g></g><g><g><use xlink:href="#b9fA001je" opacity="1" fill-opacity="0" stroke="#565656" stroke-width="1" stroke-opacity="1"></use></g></g><g><g><use xlink:href="#b36DEXG8KG" opacity="1" fill-opacity="0" stroke="#565656" stroke-width="1" stroke-opacity="1"></use></g></g><g><g><use xlink:href="#a2cVgcLQZ" opacity="1" fill-opacity="0" stroke="#565656" stroke-width="1" stroke-opacity="1"></use></g></g><g><g><use xlink:href="#fJhs4FTbf" opacity="1" fill-opacity="0" stroke="#565656" stroke-width="1" stroke-opacity="1"></use></g></g><g><g><use xlink:href="#b2DUVKuHIR" opacity="1" fill-opacity="0" stroke="#565656" stroke-width="1" stroke-opacity="1"></use></g></g><g><g><use xlink:href="#g1VYloZMEK" opacity="1" fill-opacity="0" stroke="#565656" stroke-width="1" stroke-opacity="1"></use></g></g><g><g><use xlink:href="#b2ImIsVLBb" opacity="1" fill-opacity="0" stroke="#565656" stroke-width="1" stroke-opacity="1"></use></g></g><g><g><use xlink:href="#gDpqiLWs5" opacity="1" fill-opacity="0" stroke="#565656" stroke-width="1" stroke-opacity="1"></use></g></g><g><g><use xlink:href="#dWjYomxHt" opacity="1" fill-opacity="0" stroke="#565656" stroke-width="1" stroke-opacity="1"></use></g></g><g><g><use xlink:href="#aQeDTE9WT" opacity="1" fill-opacity="0" stroke="#565656" stroke-width="1" stroke-opacity="1"></use></g></g><g><g><use xlink:href="#a4fxJJVuQ" opacity="1" fill-opacity="0" stroke="#565656" stroke-width="1" stroke-opacity="1"></use></g></g><g><g><use xlink:href="#fqGvAUJgK" opacity="1" fill-opacity="0" stroke="#565656" stroke-width="1" stroke-opacity="1"></use></g></g><g><g><use xlink:href="#c1HZAm4Yrs" opacity="1" fill-opacity="0" stroke="#565656" stroke-width="1" stroke-opacity="1"></use></g></g><g><g><use xlink:href="#d1YOVO4Lr" opacity="1" fill-opacity="0" stroke="#565656" stroke-width="1" stroke-opacity="1"></use></g></g><g><g><use xlink:href="#cwkH8L4Q7" opacity="1" fill-opacity="0" stroke="#565656" stroke-width="1" stroke-opacity="1"></use></g></g><g><g><use xlink:href="#hRAFUJTAp" opacity="1" fill-opacity="0" stroke="#565656" stroke-width="1" stroke-opacity="1"></use></g></g><g><g><use xlink:href="#e2gbEVGoOh" opacity="1" fill-opacity="0" stroke="#565656" stroke-width="1" stroke-opacity="1"></use></g></g><g><g><use xlink:href="#gakbDHYq6" opacity="1" fill-opacity="0" stroke="#565656" stroke-width="1" stroke-opacity="1"></use></g></g><g><g><use xlink:href="#b2dv2NPI7u" opacity="1" fill-opacity="0" stroke="#565656" stroke-width="1" stroke-opacity="1"></use></g></g><g><g><use xlink:href="#e3qRgLaCVG" opacity="1" fill-opacity="0" stroke="#000000" stroke-width="1" stroke-opacity="1"></use></g></g><g><g><use xlink:href="#a3QoCSEZCN" opacity="1" fill-opacity="0" stroke="#565656" stroke-width="1" stroke-opacity="1"></use></g></g><g><g><use xlink:href="#b2GXblVkav" opacity="1" fill-opacity="0" stroke="#565656" stroke-width="1" stroke-opacity="1"></use></g></g><g><g><use xlink:href="#f33dD7kul" opacity="1" fill-opacity="0" stroke="#565656" stroke-width="1" stroke-opacity="1"></use></g></g><g><g><use xlink:href="#g2fLuAnjy1" opacity="1" fill-opacity="0" stroke="#565656" stroke-width="1" stroke-opacity="1"></use></g></g><g><g><use xlink:href="#c1zGLMz5XO" opacity="1" fill-opacity="0" stroke="#565656" stroke-width="1" stroke-opacity="1"></use></g></g><g><g><use xlink:href="#cJSwWX6x" opacity="1" fill-opacity="0" stroke="#565656" stroke-width="1" stroke-opacity="1"></use></g></g><g><g><use xlink:href="#b2zGHVCtAF" opacity="1" fill-opacity="0" stroke="#565656" stroke-width="1" stroke-opacity="1"></use></g></g><g><g><use xlink:href="#a3tEn4HzTF" opacity="1" fill-opacity="0" stroke="#565656" stroke-width="1" stroke-opacity="1"></use></g></g><g><g><use xlink:href="#cnXRdda2E" opacity="1" fill-opacity="0" stroke="#565656" stroke-width="1" stroke-opacity="1"></use></g></g></g></g></svg>